<?xml version="1.0" encoding="UTF-8"?>
<svg width="752pt" height="752pt" version="1.1" viewBox="0 0 752 752" xmlns="http://www.w3.org/2000/svg">
 <g fill="#2f8c0a">
  <path d="m370.08 518.07c-75.18 0-136.16-60.973-136.16-136.16 0-75.18 60.973-136.16 136.16-136.16 75.18 0 136.16 60.973 136.16 136.16-0.003906 75.184-60.977 136.16-136.16 136.16zm0-260.47c-68.668 0-124.32 55.645-124.32 124.32 0 68.668 55.645 124.32 124.32 124.32 68.668 0 124.32-55.645 124.32-124.32s-55.648-124.32-124.32-124.32z"/>
  <path d="m370.08 488.48c-58.605 0-106.55-47.949-106.55-106.55s47.949-106.55 106.55-106.55 106.55 47.949 106.55 106.55-47.949 106.55-106.55 106.55z"/>
 </g>
</svg>
